<mxfile host="app.diagrams.net" modified="2024-07-07T09:13:37.814Z" agent="Mozilla/5.0 (Windows NT 10.0; Win64; x64) AppleWebKit/537.36 (KHTML, like Gecko) Chrome/124.0.0.0 Safari/537.36" etag="vQuVX6T-8pD2q2FPsAlJ" version="24.4.6" type="device">
  <diagram name="Trang-1" id="WxDbh5DPmmRdgLfX2Pym">
    <mxGraphModel dx="694" dy="366" grid="1" gridSize="10" guides="1" tooltips="1" connect="1" arrows="1" fold="1" page="1" pageScale="1" pageWidth="827" pageHeight="1169" math="0" shadow="0">
      <root>
        <mxCell id="0" />
        <mxCell id="1" parent="0" />
        <mxCell id="EEPRHD7N2fGpQ24O2rHO-6" style="edgeStyle=orthogonalEdgeStyle;rounded=0;orthogonalLoop=1;jettySize=auto;html=1;exitX=1;exitY=0.5;exitDx=0;exitDy=0;entryX=0.5;entryY=0;entryDx=0;entryDy=0;" edge="1" parent="1" source="EEPRHD7N2fGpQ24O2rHO-2" target="EEPRHD7N2fGpQ24O2rHO-4">
          <mxGeometry relative="1" as="geometry" />
        </mxCell>
        <mxCell id="EEPRHD7N2fGpQ24O2rHO-9" style="edgeStyle=orthogonalEdgeStyle;rounded=0;orthogonalLoop=1;jettySize=auto;html=1;exitX=0;exitY=0.5;exitDx=0;exitDy=0;entryX=0.5;entryY=0;entryDx=0;entryDy=0;" edge="1" parent="1" source="EEPRHD7N2fGpQ24O2rHO-2" target="EEPRHD7N2fGpQ24O2rHO-3">
          <mxGeometry relative="1" as="geometry" />
        </mxCell>
        <mxCell id="EEPRHD7N2fGpQ24O2rHO-2" value="Khối nguồn" style="rounded=1;whiteSpace=wrap;html=1;" vertex="1" parent="1">
          <mxGeometry x="240" y="40" width="120" height="60" as="geometry" />
        </mxCell>
        <mxCell id="EEPRHD7N2fGpQ24O2rHO-3" value="Khối điều khiển" style="rounded=1;whiteSpace=wrap;html=1;" vertex="1" parent="1">
          <mxGeometry x="120" y="160" width="120" height="60" as="geometry" />
        </mxCell>
        <mxCell id="EEPRHD7N2fGpQ24O2rHO-8" style="edgeStyle=orthogonalEdgeStyle;rounded=0;orthogonalLoop=1;jettySize=auto;html=1;exitX=0;exitY=0.5;exitDx=0;exitDy=0;entryX=1;entryY=0.5;entryDx=0;entryDy=0;" edge="1" parent="1" source="EEPRHD7N2fGpQ24O2rHO-4" target="EEPRHD7N2fGpQ24O2rHO-3">
          <mxGeometry relative="1" as="geometry" />
        </mxCell>
        <mxCell id="EEPRHD7N2fGpQ24O2rHO-4" value="Khối cảm biến" style="rounded=1;whiteSpace=wrap;html=1;" vertex="1" parent="1">
          <mxGeometry x="360" y="160" width="120" height="60" as="geometry" />
        </mxCell>
      </root>
    </mxGraphModel>
  </diagram>
</mxfile>
